<svg width="23" height="23" viewBox="0 0 23 23" fill="none" xmlns="http://www.w3.org/2000/svg">
<path d="M22.5 6.53625V15.9638C22.5 19.125 21.0487 21.2962 18.495 22.1175C17.7525 22.3762 16.8975 22.5 15.9638 22.5H6.53625C5.6025 22.5 4.7475 22.3762 4.005 22.1175C1.45125 21.2962 0 19.125 0 15.9638V6.53625C0 2.44125 2.44125 0 6.53625 0H15.9638C20.0588 0 22.5 2.44125 22.5 6.53625Z" fill="#FF7723"/>
<path d="M18.4939 22.1164C17.7514 22.3751 16.8964 22.4989 15.9626 22.4989H6.53513C5.60138 22.4989 4.74638 22.3751 4.00388 22.1164C4.39763 19.1464 7.50263 16.8401 11.2489 16.8401C14.9951 16.8401 18.1001 19.1464 18.4939 22.1164ZM15.2798 10.7775C15.2798 13.005 13.4798 14.8162 11.2523 14.8162C9.02475 14.8162 7.22475 13.005 7.22475 10.7775C7.22475 8.55 9.02475 6.75 11.2523 6.75C13.4798 6.75 15.2798 8.55 15.2798 10.7775Z" fill="#2A2A2A"/>
</svg>
